<?xml version="1.0" encoding="UTF-8"?>
<!DOCTYPE svg PUBLIC "-//W3C//DTD SVG 1.1//EN" "http://www.w3.org/Graphics/SVG/1.1/DTD/svg11.dtd">
<svg version="1.1" xmlns="http://www.w3.org/2000/svg" xmlns:xlink="http://www.w3.org/1999/xlink" x="0" y="0" width="504" height="504" viewBox="0, 0, 504, 504">
  <defs>
    <clipPath id="Clip_1">
      <path d="M0,0.189 L503.841,0.189 L503.841,503.97 L0,503.97 z"/>
    </clipPath>
  </defs>
  <g id="Layer_1">
    <g clip-path="url(#Clip_1)">
      <path d="M251.921,0.189 C183.503,0.189 174.924,0.479 148.054,1.705 C121.24,2.928 102.927,7.187 86.903,13.415 C70.337,19.852 56.288,28.466 42.282,42.471 C28.277,56.477 19.663,70.526 13.226,87.092 C6.998,103.116 2.739,121.429 1.516,148.243 C0.29,175.113 0,183.692 0,252.11 C0,320.527 0.29,329.106 1.516,355.976 C2.739,382.79 6.998,401.103 13.226,417.127 C19.663,433.693 28.277,447.742 42.282,461.748 C56.288,475.753 70.337,484.367 86.903,490.805 C102.927,497.032 121.24,501.291 148.054,502.514 C174.924,503.74 183.503,504.03 251.921,504.03 C320.338,504.03 328.917,503.74 355.787,502.514 C382.601,501.291 400.914,497.032 416.938,490.805 C433.504,484.367 447.553,475.753 461.559,461.748 C475.564,447.742 484.178,433.693 490.616,417.127 C496.843,401.103 501.102,382.79 502.325,355.976 C503.551,329.106 503.841,320.527 503.841,252.11 C503.841,183.692 503.551,175.113 502.325,148.243 C501.102,121.429 496.843,103.116 490.616,87.092 C484.178,70.526 475.564,56.477 461.559,42.471 C447.553,28.466 433.504,19.852 416.938,13.415 C400.914,7.187 382.601,2.928 355.787,1.705 C328.917,0.479 320.338,0.189 251.921,0.189 z M251.921,45.58 C319.186,45.58 327.154,45.837 353.718,47.049 C378.28,48.169 391.619,52.273 400.496,55.723 C412.255,60.293 420.647,65.752 429.462,74.568 C438.278,83.383 443.737,91.775 448.307,103.534 C451.757,112.411 455.861,125.75 456.981,150.312 C458.193,176.876 458.45,184.844 458.45,252.11 C458.45,319.375 458.193,327.343 456.981,353.907 C455.861,378.469 451.757,391.808 448.307,400.685 C443.737,412.444 438.278,420.836 429.462,429.651 C420.647,438.467 412.255,443.926 400.496,448.496 C391.619,451.946 378.28,456.05 353.718,457.17 C327.158,458.382 319.191,458.639 251.921,458.639 C184.65,458.639 176.684,458.382 150.123,457.17 C125.561,456.05 112.222,451.946 103.345,448.496 C91.586,443.926 83.194,438.467 74.379,429.651 C65.564,420.836 60.104,412.444 55.534,400.685 C52.084,391.808 47.98,378.469 46.86,353.907 C45.648,327.343 45.391,319.375 45.391,252.11 C45.391,184.844 45.648,176.876 46.86,150.312 C47.98,125.75 52.084,112.411 55.534,103.534 C60.104,91.775 65.563,83.383 74.379,74.568 C83.194,65.752 91.586,60.293 103.345,55.723 C112.222,52.273 125.561,48.169 150.123,47.049 C176.687,45.837 184.655,45.58 251.921,45.58" fill="#FFFFFF"/>
    </g>
    <path d="M251.921,336.053 C205.543,336.053 167.947,298.457 167.947,252.08 C167.947,205.702 205.543,168.106 251.921,168.106 C298.298,168.106 335.894,205.702 335.894,252.08 C335.894,298.457 298.298,336.053 251.921,336.053 z M251.921,122.715 C180.474,122.715 122.556,180.633 122.556,252.08 C122.556,323.526 180.474,381.444 251.921,381.444 C323.367,381.444 381.285,323.526 381.285,252.08 C381.285,180.633 323.367,122.715 251.921,122.715" fill="#FFFFFF"/>
    <path d="M416.627,117.604 C416.627,134.3 403.092,147.834 386.396,147.834 C369.701,147.834 356.166,134.3 356.166,117.604 C356.166,100.908 369.701,87.373 386.396,87.373 C403.092,87.373 416.627,100.908 416.627,117.604" fill="#FFFFFF"/>
  </g>
</svg>
